<svg width="200" height="200" viewBox="0 0 200 200" fill="none" xmlns="http://www.w3.org/2000/svg">
<g clip-path="url(#clip0_47_19)">
<rect width="200" height="200" rx="100" fill="#EF9F56"/>
<path d="M-33.9999 71C-33.9999 58.2974 -23.7025 48 -10.9999 48H111C123.703 48 134 58.2974 134 71V71C134 83.7025 123.703 94 111 94H-10.9999C-23.7025 94 -33.9999 83.7025 -33.9999 71V71Z" fill="#6CB654"/>
<path d="M53.3594 79.1439C51.2154 79.1439 49.5274 78.5279 48.2954 77.2959C47.0634 76.0639 46.4474 74.2399 46.4474 71.8239V62.1999H48.2234V71.7519C48.2234 73.7359 48.6714 75.1999 49.5674 76.1439C50.4634 77.0879 51.7274 77.5599 53.3594 77.5599C55.0074 77.5599 56.2794 77.0879 57.1754 76.1439C58.0714 75.1999 58.5194 73.7359 58.5194 71.7519V62.1999H60.2474V71.8239C60.2474 74.2399 59.6314 76.0639 58.3994 77.2959C57.1834 78.5279 55.5034 79.1439 53.3594 79.1439ZM68.5351 78.9999V63.7359H62.6311V62.1999H76.2151V63.7359H70.3111V78.9999H68.5351ZM79.0523 78.9999V62.1999H85.8923C87.6843 62.1999 89.2523 62.5599 90.5963 63.2799C91.9563 63.9839 93.0123 64.9679 93.7643 66.2319C94.5163 67.4959 94.8923 68.9519 94.8923 70.5999C94.8923 72.2479 94.5163 73.7039 93.7643 74.9679C93.0123 76.2319 91.9563 77.2239 90.5963 77.9439C89.2523 78.6479 87.6843 78.9999 85.8923 78.9999H79.0523ZM80.8283 77.4639H85.7963C87.2843 77.4639 88.5723 77.1759 89.6603 76.5999C90.7643 76.0079 91.6203 75.1999 92.2283 74.1759C92.8363 73.1359 93.1403 71.9439 93.1403 70.5999C93.1403 69.2399 92.8363 68.0479 92.2283 67.0239C91.6203 65.9999 90.7643 65.1999 89.6603 64.6239C88.5723 64.0319 87.2843 63.7359 85.7963 63.7359H80.8283V77.4639Z" fill="white"/>
<path d="M64 123C64 110.297 74.2975 100 87 100H209C221.703 100 232 110.297 232 123V123C232 135.703 221.703 146 209 146H87C74.2975 146 64 135.703 64 123V123Z" fill="#3C787E"/>
<path d="M100.422 131V115.736H94.5179V114.2H108.102V115.736H102.198V131H100.422ZM117.379 131.144C115.235 131.144 113.547 130.528 112.315 129.296C111.083 128.064 110.467 126.24 110.467 123.824V114.2H112.243V123.752C112.243 125.736 112.691 127.2 113.587 128.144C114.483 129.088 115.747 129.56 117.379 129.56C119.027 129.56 120.299 129.088 121.195 128.144C122.091 127.2 122.539 125.736 122.539 123.752V114.2H124.267V123.824C124.267 126.24 123.651 128.064 122.419 129.296C121.203 130.528 119.523 131.144 117.379 131.144ZM132.555 131V115.736H126.651V114.2H140.235V115.736H134.331V131H132.555ZM150.182 131.144C148.918 131.144 147.742 130.936 146.654 130.52C145.582 130.088 144.646 129.488 143.846 128.72C143.062 127.936 142.446 127.032 141.998 126.008C141.566 124.968 141.35 123.832 141.35 122.6C141.35 121.368 141.566 120.24 141.998 119.216C142.446 118.176 143.062 117.272 143.846 116.504C144.646 115.72 145.582 115.12 146.654 114.704C147.726 114.272 148.902 114.056 150.182 114.056C151.446 114.056 152.614 114.272 153.686 114.704C154.758 115.12 155.686 115.712 156.47 116.48C157.27 117.248 157.886 118.152 158.318 119.192C158.766 120.232 158.99 121.368 158.99 122.6C158.99 123.832 158.766 124.968 158.318 126.008C157.886 127.048 157.27 127.952 156.47 128.72C155.686 129.488 154.758 130.088 153.686 130.52C152.614 130.936 151.446 131.144 150.182 131.144ZM150.182 129.56C151.19 129.56 152.118 129.392 152.966 129.056C153.83 128.704 154.574 128.216 155.198 127.592C155.838 126.952 156.334 126.216 156.686 125.384C157.038 124.536 157.214 123.608 157.214 122.6C157.214 121.592 157.038 120.672 156.686 119.84C156.334 118.992 155.838 118.256 155.198 117.632C154.574 116.992 153.83 116.504 152.966 116.168C152.118 115.816 151.19 115.64 150.182 115.64C149.174 115.64 148.238 115.816 147.374 116.168C146.51 116.504 145.758 116.992 145.118 117.632C144.494 118.256 143.998 118.992 143.63 119.84C143.278 120.672 143.102 121.592 143.102 122.6C143.102 123.592 143.278 124.512 143.63 125.36C143.998 126.208 144.494 126.952 145.118 127.592C145.758 128.216 146.51 128.704 147.374 129.056C148.238 129.392 149.174 129.56 150.182 129.56ZM162.97 131V114.2H169.258C170.682 114.2 171.906 114.432 172.93 114.896C173.954 115.344 174.738 116 175.282 116.864C175.842 117.712 176.122 118.744 176.122 119.96C176.122 121.144 175.842 122.168 175.282 123.032C174.738 123.88 173.954 124.536 172.93 125C171.906 125.448 170.682 125.672 169.258 125.672H163.954L164.746 124.856V131H162.97ZM174.442 131L170.122 124.904H172.042L176.386 131H174.442ZM164.746 125L163.954 124.16H169.21C170.89 124.16 172.162 123.792 173.026 123.056C173.906 122.32 174.346 121.288 174.346 119.96C174.346 118.616 173.906 117.576 173.026 116.84C172.162 116.104 170.89 115.736 169.21 115.736H163.954L164.746 114.896V125Z" fill="white"/>
<path d="M142 -23.9999L187.033 37.5001H96.9667L142 -23.9999Z" fill="#CD6D13"/>
<path d="M14.1621 157.54L108.236 160.447L45.6017 246.253L14.1621 157.54Z" fill="#CD6D13"/>
</g>
<defs>
<clipPath id="clip0_47_19">
<rect width="200" height="200" rx="100" fill="white"/>
</clipPath>
</defs>
</svg>
