<svg width="325" height="87" viewBox="0 0 325 87" fill="none" xmlns="http://www.w3.org/2000/svg">
<path d="M108.157 53.5696C104.646 53.5696 101.901 52.5917 99.9218 50.6359C97.9424 48.6801 96.9527 45.8878 96.9527 42.259V28.4036H102.679V42.047C102.679 44.4033 103.162 46.0999 104.128 47.1367C105.094 48.1735 106.449 48.6919 108.193 48.6919C109.936 48.6919 111.291 48.1735 112.257 47.1367C113.223 46.0999 113.706 44.4033 113.706 42.047V28.4036H119.362V42.259C119.362 45.8878 118.372 48.6801 116.393 50.6359C114.413 52.5917 111.668 53.5696 108.157 53.5696ZM129.024 53.1454V33.0692H121.107V28.4036H142.667V33.0692H134.75V53.1454H129.024ZM145.041 53.1454V28.4036H156.281C158.967 28.4036 161.336 28.922 163.386 29.9588C165.436 30.9721 167.038 32.3977 168.193 34.2356C169.347 36.0736 169.925 38.2532 169.925 40.7745C169.925 43.2723 169.347 45.4519 168.193 47.3134C167.038 49.1514 165.436 50.5888 163.386 51.6256C161.336 52.6388 158.967 53.1454 156.281 53.1454H145.041ZM150.767 48.4445H155.998C157.648 48.4445 159.073 48.1382 160.275 47.5255C161.501 46.8893 162.443 45.9939 163.103 44.8393C163.786 43.6846 164.128 42.3297 164.128 40.7745C164.128 39.1958 163.786 37.8409 163.103 36.7098C162.443 35.5552 161.501 34.6716 160.275 34.0589C159.073 33.4227 157.648 33.1046 155.998 33.1046H150.767V48.4445ZM187.964 53.1454V33.0692H180.047V28.4036H201.607V33.0692H193.69V53.1454H187.964ZM214.559 53.5696C211.049 53.5696 208.303 52.5917 206.324 50.6359C204.345 48.6801 203.355 45.8878 203.355 42.259V28.4036H209.081V42.047C209.081 44.4033 209.564 46.0999 210.53 47.1367C211.496 48.1735 212.851 48.6919 214.595 48.6919C216.339 48.6919 217.693 48.1735 218.66 47.1367C219.626 46.0999 220.109 44.4033 220.109 42.047V28.4036H225.764V42.259C225.764 45.8878 224.774 48.6801 222.795 50.6359C220.816 52.5917 218.07 53.5696 214.559 53.5696ZM235.426 53.1454V33.0692H227.509V28.4036H249.07V33.0692H241.152V53.1454H235.426ZM263.116 53.5696C261.16 53.5696 259.346 53.2515 257.673 52.6153C256.023 51.979 254.586 51.0836 253.361 49.929C252.159 48.7744 251.216 47.4195 250.533 45.8643C249.873 44.3091 249.543 42.6125 249.543 40.7745C249.543 38.9366 249.873 37.24 250.533 35.6848C251.216 34.1296 252.171 32.7747 253.396 31.6201C254.621 30.4654 256.059 29.57 257.708 28.9338C259.357 28.2976 261.148 27.9795 263.081 27.9795C265.036 27.9795 266.827 28.2976 268.453 28.9338C270.102 29.57 271.528 30.4654 272.73 31.6201C273.955 32.7747 274.909 34.1296 275.593 35.6848C276.276 37.2164 276.618 38.913 276.618 40.7745C276.618 42.6125 276.276 44.3209 275.593 45.8996C274.909 47.4548 273.955 48.8097 272.73 49.9644C271.528 51.0954 270.102 51.979 268.453 52.6153C266.827 53.2515 265.048 53.5696 263.116 53.5696ZM263.081 48.6919C264.188 48.6919 265.201 48.5034 266.12 48.1264C267.063 47.7494 267.887 47.2074 268.594 46.5005C269.301 45.7936 269.843 44.9571 270.22 43.991C270.621 43.0249 270.821 41.9527 270.821 40.7745C270.821 39.5964 270.621 38.5242 270.22 37.5581C269.843 36.592 269.301 35.7555 268.594 35.0486C267.911 34.3417 267.098 33.7997 266.156 33.4227C265.213 33.0457 264.188 32.8572 263.081 32.8572C261.973 32.8572 260.948 33.0457 260.005 33.4227C259.086 33.7997 258.274 34.3417 257.567 35.0486C256.86 35.7555 256.306 36.592 255.905 37.5581C255.528 38.5242 255.34 39.5964 255.34 40.7745C255.34 41.9292 255.528 43.0013 255.905 43.991C256.306 44.9571 256.848 45.7936 257.531 46.5005C258.238 47.2074 259.063 47.7494 260.005 48.1264C260.948 48.5034 261.973 48.6919 263.081 48.6919ZM280.214 53.1454V28.4036H290.924C293.139 28.4036 295.048 28.7689 296.65 29.4993C298.252 30.2062 299.489 31.2313 300.361 32.5744C301.233 33.9175 301.669 35.5198 301.669 37.3814C301.669 39.2193 301.233 40.8099 300.361 42.153C299.489 43.4726 298.252 44.4858 296.65 45.1927C295.048 45.8996 293.139 46.2531 290.924 46.2531H283.395L285.94 43.7436V53.1454H280.214ZM295.943 53.1454L289.758 44.1677H295.872L302.128 53.1454H295.943ZM285.94 44.3798L283.395 41.6935H290.606C292.373 41.6935 293.693 41.3165 294.564 40.5625C295.436 39.7849 295.872 38.7245 295.872 37.3814C295.872 36.0147 295.436 34.9543 294.564 34.2003C293.693 33.4462 292.373 33.0692 290.606 33.0692H283.395L285.94 30.3476V44.3798Z" fill="#0B3D86"/>
<path d="M108.157 53.5696C104.646 53.5696 101.901 52.5917 99.9218 50.6359C97.9424 48.6801 96.9527 45.8878 96.9527 42.259V28.4036H102.679V42.047C102.679 44.4033 103.162 46.0999 104.128 47.1367C105.094 48.1735 106.449 48.6919 108.193 48.6919C109.936 48.6919 111.291 48.1735 112.257 47.1367C113.223 46.0999 113.706 44.4033 113.706 42.047V28.4036H119.362V42.259C119.362 45.8878 118.372 48.6801 116.393 50.6359C114.413 52.5917 111.668 53.5696 108.157 53.5696ZM129.024 53.1454V33.0692H121.107V28.4036H142.667V33.0692H134.75V53.1454H129.024ZM145.041 53.1454V28.4036H156.281C158.967 28.4036 161.336 28.922 163.386 29.9588C165.436 30.9721 167.038 32.3977 168.193 34.2356C169.347 36.0736 169.925 38.2532 169.925 40.7745C169.925 43.2723 169.347 45.4519 168.193 47.3134C167.038 49.1514 165.436 50.5888 163.386 51.6256C161.336 52.6388 158.967 53.1454 156.281 53.1454H145.041ZM150.767 48.4445H155.998C157.648 48.4445 159.073 48.1382 160.275 47.5255C161.501 46.8893 162.443 45.9939 163.103 44.8393C163.786 43.6846 164.128 42.3297 164.128 40.7745C164.128 39.1958 163.786 37.8409 163.103 36.7098C162.443 35.5552 161.501 34.6716 160.275 34.0589C159.073 33.4227 157.648 33.1046 155.998 33.1046H150.767V48.4445ZM187.964 53.1454V33.0692H180.047V28.4036H201.607V33.0692H193.69V53.1454H187.964ZM214.559 53.5696C211.049 53.5696 208.303 52.5917 206.324 50.6359C204.345 48.6801 203.355 45.8878 203.355 42.259V28.4036H209.081V42.047C209.081 44.4033 209.564 46.0999 210.53 47.1367C211.496 48.1735 212.851 48.6919 214.595 48.6919C216.339 48.6919 217.693 48.1735 218.66 47.1367C219.626 46.0999 220.109 44.4033 220.109 42.047V28.4036H225.764V42.259C225.764 45.8878 224.774 48.6801 222.795 50.6359C220.816 52.5917 218.07 53.5696 214.559 53.5696ZM235.426 53.1454V33.0692H227.509V28.4036H249.07V33.0692H241.152V53.1454H235.426ZM263.116 53.5696C261.16 53.5696 259.346 53.2515 257.673 52.6153C256.023 51.979 254.586 51.0836 253.361 49.929C252.159 48.7744 251.216 47.4195 250.533 45.8643C249.873 44.3091 249.543 42.6125 249.543 40.7745C249.543 38.9366 249.873 37.24 250.533 35.6848C251.216 34.1296 252.171 32.7747 253.396 31.6201C254.621 30.4654 256.059 29.57 257.708 28.9338C259.357 28.2976 261.148 27.9795 263.081 27.9795C265.036 27.9795 266.827 28.2976 268.453 28.9338C270.102 29.57 271.528 30.4654 272.73 31.6201C273.955 32.7747 274.909 34.1296 275.593 35.6848C276.276 37.2164 276.618 38.913 276.618 40.7745C276.618 42.6125 276.276 44.3209 275.593 45.8996C274.909 47.4548 273.955 48.8097 272.73 49.9644C271.528 51.0954 270.102 51.979 268.453 52.6153C266.827 53.2515 265.048 53.5696 263.116 53.5696ZM263.081 48.6919C264.188 48.6919 265.201 48.5034 266.12 48.1264C267.063 47.7494 267.887 47.2074 268.594 46.5005C269.301 45.7936 269.843 44.9571 270.22 43.991C270.621 43.0249 270.821 41.9527 270.821 40.7745C270.821 39.5964 270.621 38.5242 270.22 37.5581C269.843 36.592 269.301 35.7555 268.594 35.0486C267.911 34.3417 267.098 33.7997 266.156 33.4227C265.213 33.0457 264.188 32.8572 263.081 32.8572C261.973 32.8572 260.948 33.0457 260.005 33.4227C259.086 33.7997 258.274 34.3417 257.567 35.0486C256.86 35.7555 256.306 36.592 255.905 37.5581C255.528 38.5242 255.34 39.5964 255.34 40.7745C255.34 41.9292 255.528 43.0013 255.905 43.991C256.306 44.9571 256.848 45.7936 257.531 46.5005C258.238 47.2074 259.063 47.7494 260.005 48.1264C260.948 48.5034 261.973 48.6919 263.081 48.6919ZM280.214 53.1454V28.4036H290.924C293.139 28.4036 295.048 28.7689 296.65 29.4993C298.252 30.2062 299.489 31.2313 300.361 32.5744C301.233 33.9175 301.669 35.5198 301.669 37.3814C301.669 39.2193 301.233 40.8099 300.361 42.153C299.489 43.4726 298.252 44.4858 296.65 45.1927C295.048 45.8996 293.139 46.2531 290.924 46.2531H283.395L285.94 43.7436V53.1454H280.214ZM295.943 53.1454L289.758 44.1677H295.872L302.128 53.1454H295.943ZM285.94 44.3798L283.395 41.6935H290.606C292.373 41.6935 293.693 41.3165 294.564 40.5625C295.436 39.7849 295.872 38.7245 295.872 37.3814C295.872 36.0147 295.436 34.9543 294.564 34.2003C293.693 33.4462 292.373 33.0692 290.606 33.0692H283.395L285.94 30.3476V44.3798Z" fill="black" fill-opacity="0.2"/>
<g clip-path="url(#clip0_5_204)">
<rect x="0.172546" width="80.8316" height="81" rx="40.4158" fill="#EF9F56"/>
<path d="M-13.5974 28.755C-13.5974 23.6105 -9.42697 19.44 -4.28244 19.44H45.1276C50.2721 19.44 54.4426 23.6105 54.4426 28.755C54.4426 33.8995 50.2721 38.07 45.1276 38.07H-4.28245C-9.42698 38.07 -13.5974 33.8995 -13.5974 28.755Z" fill="#6CB654"/>
<path d="M21.7831 31.7383C20.9148 31.7383 20.2311 31.4888 19.7322 30.9899C19.2332 30.4909 18.9837 29.7522 18.9837 28.7737V24.876H19.703V28.7446C19.703 29.5481 19.8845 30.141 20.2473 30.5233C20.6102 30.9056 21.1221 31.0968 21.7831 31.0968C22.4505 31.0968 22.9657 30.9056 23.3286 30.5233C23.6915 30.141 23.8729 29.5481 23.8729 28.7446V24.876H24.5727V28.7737C24.5727 29.7522 24.3233 30.4909 23.8243 30.9899C23.3318 31.4888 22.6514 31.7383 21.7831 31.7383ZM27.9293 31.68V25.4981H25.5381V24.876H31.0397V25.4981H28.6485V31.68H27.9293ZM32.1887 31.68V24.876H34.9589C35.6847 24.876 36.3197 25.0218 36.8641 25.3134C37.4149 25.5985 37.8425 25.997 38.1471 26.509C38.4517 27.0209 38.6039 27.6106 38.6039 28.278C38.6039 28.9454 38.4517 29.5351 38.1471 30.047C37.8425 30.559 37.4149 30.9607 36.8641 31.2523C36.3197 31.5374 35.6847 31.68 34.9589 31.68H32.1887ZM32.908 31.0579H34.9201C35.5227 31.0579 36.0443 30.9413 36.485 30.708C36.9321 30.4682 37.2788 30.141 37.525 29.7263C37.7713 29.3051 37.8944 28.8223 37.8944 28.278C37.8944 27.7272 37.7713 27.2444 37.525 26.8297C37.2788 26.415 36.9321 26.091 36.485 25.8577C36.0443 25.618 35.5227 25.4981 34.9201 25.4981H32.908V31.0579Z" fill="white"/>
<path d="M26.0925 49.815C26.0925 44.6705 30.263 40.5 35.4075 40.5H84.8175C89.9621 40.5 94.1325 44.6705 94.1325 49.815C94.1325 54.9595 89.9621 59.13 84.8175 59.13H35.4075C30.263 59.13 26.0925 54.9595 26.0925 49.815Z" fill="#3C787E"/>
<path d="M40.8434 52.74V46.558H38.4523V45.936H43.9538V46.558H41.5627V52.74H40.8434ZM47.711 52.7983C46.8427 52.7983 46.1591 52.5488 45.6601 52.0498C45.1612 51.5509 44.9117 50.8122 44.9117 49.8337V45.936H45.631V49.8045C45.631 50.608 45.8124 51.201 46.1753 51.5833C46.5382 51.9656 47.0501 52.1568 47.711 52.1568C48.3785 52.1568 48.8936 51.9656 49.2565 51.5833C49.6194 51.201 49.8008 50.608 49.8008 49.8045V45.936H50.5007V49.8337C50.5007 50.8122 50.2512 51.5509 49.7522 52.0498C49.2598 52.5488 48.5794 52.7983 47.711 52.7983ZM53.8572 52.74V46.558H51.4661V45.936H56.9676V46.558H54.5765V52.74H53.8572ZM60.9961 52.7983C60.4842 52.7983 60.0079 52.714 59.5672 52.5456C59.1331 52.3706 58.754 52.1276 58.43 51.8166C58.1125 51.499 57.863 51.1329 57.6816 50.7182C57.5066 50.297 57.4191 49.8369 57.4191 49.338C57.4191 48.839 57.5066 48.3822 57.6816 47.9674C57.863 47.5462 58.1125 47.1801 58.43 46.8691C58.754 46.5516 59.1331 46.3086 59.5672 46.1401C60.0014 45.9651 60.4777 45.8776 60.9961 45.8776C61.508 45.8776 61.981 45.9651 62.4152 46.1401C62.8494 46.3086 63.2252 46.5483 63.5427 46.8594C63.8667 47.1704 64.1162 47.5365 64.2912 47.9577C64.4726 48.3789 64.5633 48.839 64.5633 49.338C64.5633 49.8369 64.4726 50.297 64.2912 50.7182C64.1162 51.1394 63.8667 51.5055 63.5427 51.8166C63.2252 52.1276 62.8494 52.3706 62.4152 52.5456C61.981 52.714 61.508 52.7983 60.9961 52.7983ZM60.9961 52.1568C61.4043 52.1568 61.7802 52.0887 62.1236 51.9526C62.4735 51.8101 62.7748 51.6124 63.0276 51.3597C63.2868 51.1005 63.4876 50.8024 63.6302 50.4655C63.7728 50.122 63.844 49.7462 63.844 49.338C63.844 48.9297 63.7728 48.5571 63.6302 48.2202C63.4876 47.8767 63.2868 47.5786 63.0276 47.3259C62.7748 47.0667 62.4735 46.8691 62.1236 46.733C61.7802 46.5904 61.4043 46.5192 60.9961 46.5192C60.5878 46.5192 60.2088 46.5904 59.8588 46.733C59.5089 46.8691 59.2044 47.0667 58.9452 47.3259C58.6924 47.5786 58.4916 47.8767 58.3425 48.2202C58.2 48.5571 58.1287 48.9297 58.1287 49.338C58.1287 49.7397 58.2 50.1123 58.3425 50.4558C58.4916 50.7992 58.6924 51.1005 58.9452 51.3597C59.2044 51.6124 59.5089 51.8101 59.8588 51.9526C60.2088 52.0887 60.5878 52.1568 60.9961 52.1568ZM66.1755 52.74V45.936H68.7222C69.2989 45.936 69.7946 46.0299 70.2093 46.2178C70.6241 46.3993 70.9416 46.665 71.1619 47.0149C71.3887 47.3583 71.5021 47.7763 71.5021 48.2688C71.5021 48.7483 71.3887 49.163 71.1619 49.5129C70.9416 49.8564 70.6241 50.122 70.2093 50.31C69.7946 50.4914 69.2989 50.5821 68.7222 50.5821H66.5741L66.8948 50.2516V52.74H66.1755ZM70.8217 52.74L69.0721 50.2711H69.8497L71.609 52.74H70.8217ZM66.8948 50.31L66.5741 49.9698H68.7027C69.3831 49.9698 69.8983 49.8207 70.2482 49.5226C70.6046 49.2246 70.7828 48.8066 70.7828 48.2688C70.7828 47.7244 70.6046 47.3032 70.2482 47.0052C69.8983 46.7071 69.3831 46.558 68.7027 46.558H66.5741L66.8948 46.2178V50.31Z" fill="white"/>
<path d="M57.6825 -9.72L75.921 15.1875H39.444L57.6825 -9.72Z" fill="#CD6D13"/>
<path d="M5.90818 63.8038L44.0082 64.9809L18.6412 99.7325L5.90818 63.8038Z" fill="#CD6D13"/>
</g>
<rect x="0.999985" y="86" width="308" height="1" fill="black" fill-opacity="0.4"/>
<defs>
<clipPath id="clip0_5_204">
<rect x="0.172546" width="80.8316" height="81" rx="40.4158" fill="white"/>
</clipPath>
</defs>
</svg>
